<svg width="24" height="24" viewBox="0 0 24 24" fill="none" xmlns="http://www.w3.org/2000/svg">
<g id="vscode-icons:file-type-light-config">
<path id="Vector" d="M17.449 18.2857L18.124 17.6152C21.247 17.7172 21.295 17.6077 21.4322 17.2867L22.2902 15.198L22.354 15L22.2842 14.8267C22.2475 14.7352 22.1342 14.4622 20.1842 12.603V11.625C22.4342 9.45748 22.3862 9.34648 22.258 9.02923L21.4037 6.91873C21.2755 6.60223 21.2267 6.47848 18.1262 6.56323L17.4512 5.86573C17.5209 4.83831 17.4855 3.80645 17.3455 2.78623L17.2585 2.58898L15.028 1.61398C14.6995 1.46398 14.584 1.40998 12.478 3.70348L11.5315 3.68923C9.36323 1.37473 9.26048 1.41673 8.93573 1.54798L6.86198 2.38648C6.53723 2.51773 6.42248 2.56423 6.54848 5.71423L5.87873 6.38173C2.75723 6.27973 2.70923 6.39073 2.57348 6.71023L1.71398 8.79973L1.64648 8.99998L1.71698 9.17398C1.75373 9.26398 1.86248 9.53398 3.81698 11.3955V12.3705C1.56698 14.538 1.61573 14.649 1.74473 14.967L2.59823 17.0797C2.72873 17.403 2.77523 17.5177 5.87498 17.4367L6.54998 18.138C6.48002 19.1638 6.51445 20.1941 6.65273 21.213L6.73973 21.4117L8.98448 22.3927C9.31073 22.5292 9.42398 22.578 11.524 20.2927L12.4705 20.3047C14.6417 22.6222 14.7527 22.5772 15.07 22.449L17.1392 21.6127C17.4662 21.483 17.5802 21.4372 17.449 18.2857ZM8.55548 13.3927C8.29378 12.7088 8.23989 11.9628 8.4006 11.2483C8.5613 10.5338 8.92943 9.88272 9.4588 9.37669C9.98817 8.87067 10.6552 8.53225 11.3762 8.40391C12.0972 8.27557 12.84 8.36302 13.5115 8.65529C14.1829 8.94756 14.7531 9.43162 15.1505 10.0468C15.5479 10.6619 15.7548 11.3807 15.7452 12.1129C15.7355 12.8452 15.5099 13.5583 15.0965 14.1628C14.6831 14.7673 14.1004 15.2362 13.4215 15.5107C12.4952 15.873 11.4631 15.8535 10.5511 15.4565C9.63917 15.0596 8.9216 14.3175 8.55548 13.3927Z" fill="white"/>
</g>
</svg>
